<svg width="55" height="55" viewBox="0 0 55 55" fill="none" xmlns="http://www.w3.org/2000/svg">
<path d="M53 48.1755C53 50.9495 50.699 53.1982 47.8605 53.1982C45.022 53.1982 42.7209 50.9495 42.7209 48.1755C42.7209 45.4015 45.022 43.1528 47.8605 43.1528C50.699 43.1528 53 45.4015 53 48.1755Z" fill="#DAF5FE"/>
<path d="M34.4186 52.2323C35.3788 52.2323 36.1572 51.4539 36.1572 50.4937C36.1572 49.5335 35.3788 48.7551 34.4186 48.7551V52.2323ZM9.51163 50.4937L9.42232 52.23L9.46694 52.2323H9.51163V50.4937ZM46.9125 35.8119C46.9125 36.7721 47.6909 37.5505 48.6512 37.5505C49.6114 37.5505 50.3898 36.7721 50.3898 35.8119H46.9125ZM34.4186 48.7551H9.51163V52.2323H34.4186V48.7551ZM9.60094 48.7574C8.60314 48.706 7.06738 48.3369 5.83093 47.449C4.67244 46.6172 3.73864 45.3176 3.73864 43.1528H0.261364C0.261364 46.5516 1.83143 48.8581 3.80279 50.2736C5.69619 51.6331 7.91624 52.1526 9.42232 52.23L9.60094 48.7574ZM9.42232 6.25736C7.91624 6.33482 5.69619 6.85428 3.80279 8.21381C1.83143 9.62932 0.261364 11.9357 0.261364 15.3346H3.73864C3.73864 13.1698 4.67244 11.8702 5.83093 11.0384C7.06738 10.1505 8.60314 9.78136 9.60094 9.73004L9.42232 6.25736ZM41.0502 9.73004C42.048 9.78136 43.5838 10.1505 44.8202 11.0384C45.9787 11.8702 46.9125 13.1698 46.9125 15.3346H50.3898C50.3898 11.9357 48.8197 9.62932 46.8484 8.21381C44.955 6.85428 42.7349 6.33482 41.2288 6.25736L41.0502 9.73004ZM3.73864 43.1528V20.3573H0.261364V43.1528H3.73864ZM3.73864 20.3573V15.3346H0.261364V20.3573H3.73864ZM46.9125 15.3346V20.3573H50.3898V15.3346H46.9125ZM46.9125 20.3573V35.8119H50.3898V20.3573H46.9125ZM2 22.096H48.6512V18.6187H2V22.096ZM11.2503 7.9937V3.35733H7.77299V7.9937H11.2503ZM11.2503 3.35733C11.2503 3.33662 11.2517 3.44517 11.1337 3.58933C11.0795 3.65554 10.9965 3.73262 10.8749 3.79865C10.7611 3.86044 10.5668 3.93688 10.3023 3.93688V0.459606C8.71662 0.459606 7.77299 1.96596 7.77299 3.35733H11.2503ZM10.3023 3.93688C10.0378 3.93688 9.84355 3.86044 9.72973 3.79865C9.60811 3.73262 9.52513 3.65554 9.47093 3.58933C9.35292 3.44517 9.35439 3.33662 9.35439 3.35733H12.8317C12.8317 1.96596 11.888 0.459606 10.3023 0.459606V3.93688ZM41.1395 6.25506H11.093V9.73233H41.1395V6.25506ZM11.093 6.25506H9.51163V9.73233H11.093V6.25506ZM9.35439 3.35733V7.9937H12.8317V3.35733H9.35439ZM41.2968 7.9937V3.35733H37.8195V7.9937H41.2968ZM41.2968 3.35733C41.2968 3.33662 41.2982 3.44517 41.1802 3.58933C41.126 3.65554 41.0431 3.73262 40.9214 3.79865C40.8076 3.86044 40.6133 3.93688 40.3488 3.93688V0.459606C38.7631 0.459606 37.8195 1.96596 37.8195 3.35733H41.2968ZM40.3488 3.93688C40.0844 3.93688 39.8901 3.86044 39.7762 3.79865C39.6546 3.73262 39.5716 3.65554 39.5174 3.58933C39.3994 3.44517 39.4009 3.33662 39.4009 3.35733H42.8782C42.8782 1.96596 41.9345 0.459606 40.3488 0.459606V3.93688ZM39.4009 3.35733V7.9937H42.8782V3.35733H39.4009ZM51.2614 48.1755C51.2614 49.9518 49.7766 51.4596 47.8605 51.4596V54.9369C51.6213 54.9369 54.7386 51.9472 54.7386 48.1755H51.2614ZM47.8605 51.4596C45.9443 51.4596 44.4596 49.9518 44.4596 48.1755H40.9823C40.9823 51.9472 44.0997 54.9369 47.8605 54.9369V51.4596ZM44.4596 48.1755C44.4596 46.3992 45.9443 44.8914 47.8605 44.8914V41.4142C44.0997 41.4142 40.9823 44.4039 40.9823 48.1755H44.4596ZM47.8605 44.8914C49.7766 44.8914 51.2614 46.3992 51.2614 48.1755H54.7386C54.7386 44.4039 51.6213 41.4142 47.8605 41.4142V44.8914Z" fill="#DAF5FE"/>
</svg>
