<svg width="76.000000" height="76.000000" viewBox="0 0 76 76" fill="none" xmlns="http://www.w3.org/2000/svg" xmlns:xlink="http://www.w3.org/1999/xlink">
	<desc>
			Created with Pixso.
	</desc>
	<defs/>
	<path id="Subtract" d="M76 38C76 17.0127 58.9873 0 38 0C17.0127 0 0 17.0127 0 38C0 58.9873 17.0127 76 38 76C58.9863 76 76 58.9863 76 38ZM54 54.6924C54 53.3584 53.0615 52.3848 51.7676 52.3848L38.501 52.3848C38.96 52.2793 39.377 52.0254 39.7314 51.665L52.999 38.3281C53.499 37.8203 53.75 37.2275 53.75 36.6133C53.75 35.2793 52.8105 34.3057 51.5176 34.3057C50.8711 34.3057 50.2871 34.5811 49.8486 35.0049L45.5928 39.2812L40.1064 45.3984L40.3359 40.9316L40.3359 21.3926C40.3359 19.9531 39.377 19 38 19C36.623 19 35.6846 19.9531 35.6846 21.3926L35.6846 40.9316L35.8936 45.3779L30.4072 39.2812L26.1309 35.0049C25.7129 34.5811 25.1289 34.3057 24.4619 34.3057C23.1895 34.3057 22.2295 35.2793 22.2295 36.6133C22.2295 37.2275 22.4795 37.8203 22.9805 38.3281L36.2686 51.665C36.623 52.0254 37.04 52.2793 37.5205 52.3848L24.2734 52.3848C22.96 52.3848 22 53.3584 22 54.6924C22 56.0264 22.96 57 24.2734 57L51.7676 57C53.0615 57 54 56.0264 54 54.6924Z" clip-rule="evenodd" fill="#FFFFFF" fill-opacity="1.000000" fill-rule="evenodd"/>
</svg>
