<svg width="27" height="26" viewBox="0 0 27 26" fill="none" xmlns="http://www.w3.org/2000/svg">
<path d="M7.10648 17.9761L7.12061 17.893V17.8308C7.12109 17.826 7.12178 17.8194 7.12276 17.8106C7.12344 17.8045 7.12434 17.7966 7.1254 17.7874C7.12941 17.7526 7.13564 17.6983 7.14057 17.6456C7.1541 17.5008 7.16557 17.2977 7.14109 17.0618C7.08957 16.5651 6.88551 15.996 6.36534 15.4683L1.31457 10.3444C1.25616 10.2756 1.2026 10.2078 1.156 10.1428C1.16466 10.1414 1.17353 10.1401 1.1826 10.1388L1.18261 10.1389L1.19573 10.1368L8.57802 8.96658L8.62308 8.95943L8.6673 8.94822C9.45612 8.74816 9.93157 8.23909 10.2202 7.77895C10.3604 7.55542 10.463 7.3342 10.5386 7.16057C10.5755 7.07604 10.6021 7.01266 10.6238 6.9611C10.6553 6.8863 10.6763 6.83638 10.7027 6.78289L10.7028 6.7827L13.4566 1.19514C13.4689 1.17453 13.483 1.15278 13.4985 1.13084C13.5081 1.14596 13.5181 1.16224 13.5284 1.17975L16.0461 6.75235L16.053 6.76765L16.0604 6.78271L16.0683 6.79885C16.1837 7.03309 16.3972 7.46655 16.7269 7.87531C17.0679 8.29817 17.5845 8.76004 18.3264 8.94822L18.3707 8.95945L18.4158 8.9666L25.8044 10.1368L25.8044 10.1369L25.8174 10.1388C25.8265 10.1401 25.8353 10.1414 25.844 10.1428C25.7974 10.2078 25.7438 10.2756 25.6854 10.3444L20.6347 15.4683C20.113 15.9975 19.9105 16.5687 19.8614 17.0669C19.8381 17.3032 19.8508 17.5065 19.865 17.6507C19.8701 17.7019 19.8765 17.756 19.8806 17.7904C19.8818 17.8001 19.8827 17.8083 19.8835 17.8144C19.8843 17.8219 19.885 17.8278 19.8854 17.8322V17.893L19.8996 17.9761L21.0388 24.6795C21.0384 24.8149 21.0363 24.9108 21.0278 24.9933C21.0255 24.9935 21.0231 24.9938 21.0207 24.994C21.0002 24.985 20.9764 24.9742 20.949 24.9616C20.7925 24.889 20.5749 24.7788 20.3074 24.6372C19.7754 24.3555 19.0923 23.9739 18.3989 23.58C17.8042 23.2421 17.1886 22.8873 16.6643 22.5852C16.0009 22.2028 15.4836 21.9046 15.3396 21.8316C14.7125 21.5135 13.159 21.0746 11.6665 21.8316C11.5225 21.9046 11.0052 22.2028 10.3418 22.5851C9.81744 22.8873 9.20185 23.2421 8.60712 23.58C7.91371 23.9739 7.23061 24.3555 6.69867 24.6372C6.43117 24.7788 6.21358 24.889 6.05703 24.9616C6.02966 24.9742 6.00585 24.985 5.98538 24.994C5.98295 24.9938 5.98056 24.9935 5.97821 24.9933C5.96977 24.9108 5.96768 24.8149 5.96723 24.6795L7.10648 17.9761ZM21.1037 25.0284C21.1182 25.0325 21.1262 25.0355 21.1263 25.0359C21.1264 25.0362 21.1193 25.0342 21.1037 25.0284ZM5.90228 25.0285C5.88639 25.0343 5.8793 25.0363 5.87972 25.0359C5.88014 25.0354 5.88808 25.0325 5.90228 25.0285Z" stroke="#DAF5FE" stroke-width="2"/>
</svg>
