<svg width="51" height="51" viewBox="0 0 51 51" fill="none" xmlns="http://www.w3.org/2000/svg">
<path d="M2.52297 17.1459C4.17062 17.1459 5.04594 16.2448 5.04594 14.5972V8.7789C5.04594 6.28168 6.35891 5.04594 8.75315 5.04594H14.7002C16.3478 5.04594 17.2489 4.14488 17.2489 2.52297C17.2489 0.90106 16.3478 0 14.7002 0H8.44422C2.88339 0 0 2.85765 0 8.34124V14.5972C0 16.2448 0.90106 17.1459 2.52297 17.1459ZM48.477 17.1459C50.1247 17.1459 51 16.2448 51 14.5972V8.34124C51 2.85765 48.1166 0 42.5558 0H36.2999C34.6522 0 33.7511 0.90106 33.7511 2.52297C33.7511 4.14488 34.6522 5.04594 36.2999 5.04594H42.2468C44.6153 5.04594 45.9541 6.28168 45.9541 8.7789V14.5972C45.9541 16.2448 46.8551 17.1459 48.477 17.1459ZM18.6391 40.9339H33.4937C36.7118 40.9339 38.4109 39.209 38.4109 35.9652V23.4018C38.4109 21.368 38.102 20.4412 36.9177 19.2312L29.3231 11.4821C28.2161 10.3493 27.1605 9.96315 25.3327 9.96315H18.6391C15.4467 9.96315 13.7476 11.7138 13.7476 14.9576V35.9652C13.7476 39.209 15.4467 40.9339 18.6391 40.9339ZM18.7421 37.4841C17.6608 37.4841 17.1716 36.9692 17.1716 35.9394V14.9833C17.1716 13.9536 17.6608 13.4129 18.7678 13.4129H24.4316V20.8788C24.4316 22.9384 25.5901 24.0712 27.6497 24.0712H34.9869V35.9394C34.9869 36.9692 34.472 37.4841 33.365 37.4841H18.7421ZM28.1388 20.8016C27.8556 20.8016 27.7269 20.6986 27.7269 20.3897V14.6744L33.7511 20.8016H28.1388ZM8.44422 51H14.7002C16.3478 51 17.2489 50.0989 17.2489 48.477C17.2489 46.8551 16.3478 45.9541 14.7002 45.9541H8.75315C6.35891 45.9541 5.04594 44.7183 5.04594 42.1954V36.3771C5.04594 34.7294 4.14488 33.8284 2.52297 33.8284C0.875315 33.8284 0 34.7294 0 36.3771V42.633C0 48.1424 2.88339 51 8.44422 51ZM36.2999 51H42.5558C48.1166 51 51 48.1424 51 42.633V36.3771C51 34.7294 50.0989 33.8284 48.477 33.8284C46.8294 33.8284 45.9541 34.7552 45.9541 36.3771V42.1954C45.9541 44.7183 44.6153 45.9541 42.2468 45.9541H36.2999C34.6522 45.9541 33.7511 46.8551 33.7511 48.477C33.7511 50.0989 34.6522 51 36.2999 51Z" fill="#DAF5FE"/>
</svg>
