<svg width="17.000000" height="17.000000" viewBox="0 0 17 17" fill="none" xmlns="http://www.w3.org/2000/svg" xmlns:xlink="http://www.w3.org/1999/xlink">
	<desc>
			Created with Pixso.
	</desc>
	<defs/>
	<path id="doc.viewfinder" d="M0.42 5.16C0.97 5.16 1.26 4.87 1.26 4.32L1.26 2.38C1.26 1.55 1.69 1.14 2.49 1.14L4.47 1.14C5.02 1.14 5.32 0.84 5.32 0.3C5.32 -0.24 5.02 -0.54 4.47 -0.54L2.39 -0.54C0.54 -0.54 -0.42 0.41 -0.42 2.24L-0.42 4.32C-0.42 4.87 -0.12 5.16 0.42 5.16ZM15.7 5.16C16.25 5.16 16.54 4.87 16.54 4.32L16.54 2.24C16.54 0.41 15.58 -0.54 13.73 -0.54L11.65 -0.54C11.1 -0.54 10.8 -0.24 10.8 0.3C10.8 0.84 11.1 1.14 11.65 1.14L13.63 1.14C14.41 1.14 14.86 1.55 14.86 2.38L14.86 4.32C14.86 4.87 15.16 5.16 15.7 5.16ZM5.78 13.07L10.72 13.07C11.79 13.07 12.35 12.5 12.35 11.42L12.35 7.25C12.35 6.57 12.25 6.26 11.85 5.86L9.33 3.28C8.96 2.91 8.61 2.78 8 2.78L5.78 2.78C4.72 2.78 4.15 3.36 4.15 4.44L4.15 11.42C4.15 12.5 4.72 13.07 5.78 13.07ZM5.81 11.93C5.45 11.93 5.29 11.76 5.29 11.41L5.29 4.45C5.29 4.1 5.45 3.92 5.82 3.92L7.7 3.92L7.7 6.41C7.7 7.09 8.09 7.47 8.77 7.47L11.21 7.47L11.21 11.41C11.21 11.76 11.04 11.93 10.67 11.93L5.81 11.93ZM8.94 6.38C8.84 6.38 8.8 6.35 8.8 6.24L8.8 4.34L10.8 6.38L8.94 6.38ZM2.39 16.42L4.47 16.42C5.02 16.42 5.32 16.12 5.32 15.58C5.32 15.04 5.02 14.74 4.47 14.74L2.49 14.74C1.69 14.74 1.26 14.33 1.26 13.49L1.26 11.56C1.26 11.01 0.96 10.71 0.42 10.71C-0.13 10.71 -0.42 11.01 -0.42 11.56L-0.42 13.64C-0.42 15.47 0.54 16.42 2.39 16.42ZM11.65 16.42L13.73 16.42C15.58 16.42 16.54 15.47 16.54 13.64L16.54 11.56C16.54 11.01 16.24 10.71 15.7 10.71C15.15 10.71 14.86 11.02 14.86 11.56L14.86 13.49C14.86 14.33 14.41 14.74 13.63 14.74L11.65 14.74C11.1 14.74 10.8 15.04 10.8 15.58C10.8 16.12 11.1 16.42 11.65 16.42Z" fill="#DAF5FE" fill-opacity="1.000000" fill-rule="nonzero"/>
</svg>
