<svg width="36" height="42" viewBox="0 0 36 42" fill="none" xmlns="http://www.w3.org/2000/svg">
<path d="M2 30V9.66667C2 7.11111 3.53333 2 9.66667 2C15.8 2 20.8889 2 22.6667 2M8.66667 36.3333C8.66667 37.5556 9.4 40 12.3333 40C15.2667 40 25.5556 40 30.3333 40C31.5556 39.8889 34 39 34 36.3333C34 33.6667 34 19.2222 34 12.3333C34 11.1111 33.2667 8.66667 30.3333 8.66667C27.4 8.66667 17.1111 8.66667 12.3333 8.66667C11.1111 8.77778 8.66667 9.66667 8.66667 12.3333C8.66667 15 8.66667 29.4444 8.66667 36.3333Z" stroke="#95979E" stroke-width="3" stroke-linecap="round"/>
</svg>
