<svg width="21.000000" height="36.000000" viewBox="0 0 21 36" fill="none" xmlns="http://www.w3.org/2000/svg" xmlns:xlink="http://www.w3.org/1999/xlink">
	<desc>
			Created with Pixso.
	</desc>
	<defs/>
	<path id="chevron.forward" d="M20.32 17.65C20.3 16.95 20.04 16.36 19.5 15.82L4.02 0.67C3.56 0.23 3.02 0 2.36 0C1.03 0 0 1.03 0 2.36C0 3 0.25 3.6 0.71 4.06L14.64 17.65L0.71 31.25C0.25 31.7 0 32.28 0 32.94C0 34.27 1.03 35.31 2.36 35.31C3 35.31 3.56 35.07 4.02 34.63L19.5 19.46C20.06 18.94 20.32 18.35 20.32 17.65Z" fill="#3F4249" fill-opacity="1.000000" fill-rule="nonzero"/>
</svg>
