<svg width="58.000000" height="58.000000" viewBox="0 0 58 58" fill="none" xmlns="http://www.w3.org/2000/svg" xmlns:xlink="http://www.w3.org/1999/xlink">
	<desc>
			Created with Pixso.
	</desc>
	<defs/>
	<rect id="Line / Raise Hand Icon" width="58.000000" height="58.000000" fill="#FFFFFF" fill-opacity="0"/>
	<path id="Vector" d="M39.35 30.59L39.35 43.01C39.35 43.72 39.2 45.43 38.61 46.56C37.87 47.98 36.39 49.4 33.43 49.4L28.26 49.4C25.3 49.4 23.82 47.98 23.08 46.56C22.49 45.43 22.34 43.72 22.34 43.01C22.34 37.9 22.34 32.6 22.34 30.59M6.44 9.3C7.33 22.64 17.41 29.17 22.34 30.59L39.35 30.59C43.42 31.42 51.55 36.27 51.55 49.05M30.84 23.49C26.56 23.49 23.08 20.16 23.08 16.04C23.08 11.92 26.56 8.59 30.84 8.59C35.13 8.59 38.61 11.92 38.61 16.04C38.61 20.16 35.13 23.49 30.84 23.49Z" stroke="#FFFFFF" stroke-opacity="1.000000" stroke-width="4.936170" stroke-linecap="round"/>
</svg>
