<svg width="90.000000" height="90.000000" viewBox="0 0 90 90" fill="none" xmlns="http://www.w3.org/2000/svg" xmlns:xlink="http://www.w3.org/1999/xlink">
	<desc>
			Created with Pixso.
	</desc>
	<defs/>
	<rect id="Rectangle 39" rx="20.000000" width="90.000000" height="90.000000" fill="#F83D3D" fill-opacity="1.000000"/>
	<path id="Vector" d="M13.33 26.09C13.33 22.72 16 20 19.3 20L70.69 20C73.99 20 76.66 22.72 76.66 26.09L76.66 36.46L76.66 63.9C76.66 67.27 73.99 70 70.69 70L19.3 70C16 70 13.33 67.27 13.33 63.9L13.33 36.46L13.33 26.09Z" fill="#FFFFFF" fill-opacity="1.000000" fill-rule="nonzero"/>
	<path id="Vector" d="M70.69 20C73.99 20 76.66 22.72 76.66 26.09L76.66 36.46L76.66 63.9C76.66 67.27 73.99 70 70.69 70L19.3 70C16 70 13.33 67.27 13.33 63.9L13.33 36.46L13.33 26.09C13.33 22.72 16 20 19.3 20L70.69 20ZM76.66 36.46L13.33 36.46" stroke="#F83D3D" stroke-opacity="1.000000" stroke-width="3.000000"/>
</svg>
