<svg width="90" height="90" viewBox="0 0 90 90" fill="none" xmlns="http://www.w3.org/2000/svg">
<rect width="90" height="90" rx="20" fill="#F83D3D"/>
<path d="M13.333 26.0976C13.333 22.73 16.008 20 19.3079 20H70.6915C73.9913 20 76.6663 22.73 76.6663 26.0976V36.4634V63.9024C76.6663 67.27 73.9913 70 70.6915 70H19.3079C16.008 70 13.333 67.27 13.333 63.9024V36.4634V26.0976Z" fill="white"/>
<path d="M76.6663 36.4634V26.0976C76.6663 22.73 73.9913 20 70.6915 20H19.3079C16.008 20 13.333 22.73 13.333 26.0976V36.4634M76.6663 36.4634V63.9024C76.6663 67.27 73.9913 70 70.6915 70H19.3079C16.008 70 13.333 67.27 13.333 63.9024V36.4634M76.6663 36.4634H13.333" stroke="#F83D3D" stroke-width="3"/>
</svg>
