<svg width="42.000000" height="42.000000" viewBox="0 0 42 42" fill="none" xmlns="http://www.w3.org/2000/svg" xmlns:xlink="http://www.w3.org/1999/xlink">
	<desc>
			Created with Pixso.
	</desc>
	<defs>
		<filter id="filter_46_355_dd" x="-0.32188" y="-0.371582" width="41.923828" height="41.739258" filterUnits="userSpaceOnUse" color-interpolation-filters="sRGB">
			<feFlood flood-opacity="0" result="BackgroundImageFix"/>
			<feColorMatrix in="SourceAlpha" type="matrix" values="0 0 0 0 0 0 0 0 0 0 0 0 0 0 0 0 0 0 127 0" result="hardAlpha"/>
			<feOffset dx="0" dy="4"/>
			<feGaussianBlur stdDeviation="1.33333"/>
			<feComposite in2="hardAlpha" operator="out" k2="-1" k3="1"/>
			<feColorMatrix type="matrix" values="0 0 0 0 0 0 0 0 0 0 0 0 0 0 0 0 0 0 0.325 0"/>
			<feBlend mode="normal" in2="BackgroundImageFix" result="effect_dropShadow_1"/>
			<feBlend mode="normal" in="SourceGraphic" in2="effect_dropShadow_1" result="shape"/>
		</filter>
	</defs>
	<g filter="url(#filter_46_355_dd)"/>
	<path id="Vector" d="M5 29.8C5 28.04 4.99 26.02 5 25.4C5 24.77 5.25 23.88 5.93 23.2C6.19 22.93 15.95 13.29 23.34 5.9C24.82 4.42 26.2 3.03 27.39 1.83C28.02 1.2 29.63 0.32 31.13 1.83C32.62 3.34 34.45 5.18 35.17 5.91C36.66 7.42 35.79 9.06 35.17 9.68C33.99 10.88 32.61 12.27 31.13 13.77C24.03 20.94 14.64 30.43 14.02 31.05C13.27 31.81 12.05 32 11.53 32L7.17 32C6.45 32 5 31.56 5 29.8ZM31.13 13.77L23.34 5.9" stroke="#DAF5FE" stroke-opacity="1.000000" stroke-width="2.735294"/>
</svg>
