<svg width="56.000000" height="56.000000" viewBox="0 0 56 56" fill="none" xmlns="http://www.w3.org/2000/svg" xmlns:xlink="http://www.w3.org/1999/xlink">
	<desc>
			Created with Pixso.
	</desc>
	<defs/>
	<path id="Vector" d="M55.75 28C55.75 43.46 43.22 56 27.75 56C12.29 56 -0.25 43.46 -0.25 28C-0.25 12.53 12.29 0 27.75 0C43.22 0 55.75 12.53 55.75 28ZM27.75 43.86C25.51 43.86 24.95 42 24.95 41.06L24.95 30.79L14.69 30.79C13.75 30.79 11.89 30.24 11.89 28C11.89 25.75 13.75 25.2 14.69 25.2L24.95 25.2L24.95 14.93C24.95 14 25.51 12.13 27.75 12.13C29.99 12.13 30.55 14 30.55 14.93L30.55 25.2L40.82 25.2C41.75 25.2 43.62 25.75 43.62 28C43.62 30.24 41.75 30.79 40.82 30.79L30.55 30.79L30.55 41.06C30.55 42 29.99 43.86 27.75 43.86Z" fill="#2EA5FF" fill-opacity="1.000000" fill-rule="evenodd"/>
</svg>
