<svg width="25" height="26" viewBox="0 0 25 26" fill="none" xmlns="http://www.w3.org/2000/svg">
<path d="M11.3614 14.1985V14.0319H11.1948H7.92815C7.34911 14.0319 6.9503 13.6379 6.9503 13.0773C6.9503 12.7896 7.05162 12.55 7.21894 12.3826C7.3861 12.2153 7.62853 12.1108 7.92815 12.1108H11.1948H11.3614V11.9442V8.66404C11.3614 8.36967 11.4633 8.12969 11.6265 7.96391C11.7896 7.79822 12.023 7.69756 12.3035 7.69756C12.5978 7.69756 12.8405 7.79948 13.0091 7.96567C13.1775 8.13165 13.2814 8.37099 13.2814 8.66404V11.9442V12.1108H13.448H16.7266C17.3009 12.1108 17.6925 12.5121 17.6925 13.0773C17.6925 13.639 17.2925 14.0319 16.7266 14.0319H13.448H13.2814V14.1985V17.4787C13.2814 18.0392 12.8826 18.4332 12.3035 18.4332C11.753 18.4332 11.3614 18.0439 11.3614 17.4787V14.1985ZM24.5 13.0654C24.5 19.7244 18.9951 25.2321 12.3274 25.2321C5.67163 25.2321 0.166667 19.7245 0.166667 13.0654C0.166667 6.40602 5.65992 0.898722 12.3154 0.898722C18.9834 0.898722 24.5 6.40655 24.5 13.0654ZM2.31311 13.0654C2.31311 18.6317 6.76251 23.1083 12.3274 23.1083C17.8914 23.1083 22.3776 18.6325 22.3655 13.065C22.3534 7.49829 17.8796 3.03444 12.3154 3.03444C6.76265 3.03444 2.31311 7.49896 2.31311 13.0654Z" fill="#2EA5FF" stroke="#20303F" stroke-width="0.333333"/>
</svg>
