<svg width="10" height="9" viewBox="0 0 10 9" fill="none" xmlns="http://www.w3.org/2000/svg">
<path d="M2.37224 5.93522L1.98774 8.19761C1.98774 8.43165 1.98774 8.66569 2.37224 8.66569C2.50946 8.66569 4.21784 7.65152 4.37164 7.5735C4.74076 7.38627 5.14064 7.49549 5.29444 7.5735C5.44824 7.65152 7.15661 8.66569 7.29384 8.66569C7.67834 8.66569 7.67834 8.43165 7.67834 8.19761L7.29384 5.93522C7.29384 5.85721 7.21694 5.62317 7.44764 5.38913L9.13944 3.67283C9.31888 3.4648 9.52394 3.12674 8.98564 3.04873L6.52279 2.65866C6.21519 2.58065 6.06139 2.26859 5.98449 2.11257L5.13859 0.240245C4.89251 -0.19663 4.62592 0.0582135 4.52339 0.240245L3.60062 2.11257C3.52368 2.26859 3.44678 2.58065 3.13918 2.65866L0.678421 3.04873C0.14012 3.12674 0.345187 3.4648 0.52462 3.67283L2.21642 5.38913C2.44712 5.62317 2.37224 5.85721 2.37224 5.93522Z" fill="#FFB03A"/>
</svg>
