<svg width="27" height="26" viewBox="0 0 27 26" fill="none" xmlns="http://www.w3.org/2000/svg">
<path d="M6.12061 17.8086L4.96711 24.5958C4.96711 25.2979 4.96711 26 6.12061 26C6.5323 26 11.6574 22.9575 12.1188 22.7234C13.2262 22.1617 14.4258 22.4894 14.8872 22.7234C15.3486 22.9575 20.4737 26 20.8854 26C22.0389 26 22.0389 25.2979 22.0389 24.5958L20.8854 17.8086C20.8854 17.5746 20.6547 16.8724 21.3468 16.1703L26.4222 11.0214C26.9605 10.3973 27.5757 9.38315 25.9608 9.14911L18.5723 7.97891C17.6495 7.74487 17.1881 6.80871 16.9574 6.34063L14.4197 0.723664C13.6814 -0.586961 12.8817 0.17757 12.5741 0.723664L9.80578 6.34063C9.57496 6.80871 9.34426 7.74487 8.42146 7.97891L1.03917 9.14911C-0.575733 9.38315 0.0394672 10.3973 0.577768 11.0214L5.65317 16.1703C6.34527 16.8724 6.12061 17.5746 6.12061 17.8086Z" fill="#DAF5FE"/>
</svg>
