<svg width="47" height="47" viewBox="0 0 47 47" fill="none" xmlns="http://www.w3.org/2000/svg">
<path fill-rule="evenodd" clip-rule="evenodd" d="M1.46447 20.0797C-0.488155 22.0323 -0.488155 25.1982 1.46447 27.1508L5.38499 31.0713V36.6152C5.38499 39.3767 7.62356 41.6152 10.385 41.6152H15.9289L19.8492 45.5356C21.8019 47.4882 24.9677 47.4882 26.9203 45.5356L30.8406 41.6152H36.385C39.1464 41.6152 41.385 39.3767 41.385 36.6152V31.0709L45.3051 27.1508C47.2577 25.1982 47.2577 22.0323 45.3051 20.0797L41.385 16.1596V10.6152C41.385 7.85382 39.1464 5.61525 36.385 5.61525H30.8406L26.9203 1.69493C24.9677 -0.257687 21.8019 -0.257687 19.8492 1.69493L15.9289 5.61525H10.385C7.62356 5.61525 5.38499 7.85382 5.38499 10.6152V16.1592L1.46447 20.0797ZM31.2411 15.6746C31.9001 14.9877 32.9686 14.9877 33.6276 15.6746C34.2866 16.3616 34.2866 17.4503 33.6276 18.1373L20.7784 31.531C19.9684 32.3753 19.0589 31.8828 18.7054 31.531L12.9918 25.5752C12.3328 24.8883 12.3328 23.7745 12.9918 23.0876C13.6508 22.4006 14.7193 22.4006 15.3783 23.0876L19.7659 27.6611L31.2411 15.6746Z" fill="#2EA5FF"/>
</svg>
