<svg width="66" height="66" viewBox="0 0 66 66" fill="none" xmlns="http://www.w3.org/2000/svg">
<path fill-rule="evenodd" clip-rule="evenodd" d="M2.06662 28.0107C-0.688872 30.7662 -0.688872 35.2337 2.06662 37.9892L7.59915 43.5218V51.3452C7.59915 55.2421 10.7582 58.4011 14.655 58.4011H22.4785L28.0107 63.9333C30.7662 66.6888 35.2337 66.6888 37.9892 63.9333L43.5215 58.4011H51.3455C55.2424 58.4011 58.4014 55.2421 58.4014 51.3452V43.5212L63.9333 37.9892C66.6888 35.2337 66.6888 30.7662 63.9333 28.0107L58.4014 22.4788V14.6547C58.4014 10.7579 55.2424 7.59885 51.3455 7.59885H43.5215L37.9892 2.06662C35.2337 -0.688872 30.7662 -0.688872 28.0107 2.06662L22.4785 7.59885H14.655C10.7582 7.59885 7.59915 10.7579 7.59915 14.6547V22.4782L2.06662 28.0107ZM44.0863 21.7938C45.0163 20.8244 46.5241 20.8244 47.454 21.7938C48.384 22.7632 48.384 24.2996 47.454 25.269L29.3216 44.1698C28.1786 45.3613 26.8951 44.6663 26.3963 44.1698L18.3334 35.7653C17.4034 34.7959 17.4034 33.2242 18.3334 32.2548C19.2634 31.2854 20.7712 31.2854 21.7012 32.2548L27.8928 38.7087L44.0863 21.7938Z" fill="white"/>
</svg>
