<svg width="51.000000" height="60.000000" viewBox="0 0 51 60" fill="none" xmlns="http://www.w3.org/2000/svg" xmlns:xlink="http://www.w3.org/1999/xlink">
	<desc>
			Created with Pixso.
	</desc>
	<defs/>
	<path id="Vector" d="M41.29 2.4C36.13 2.4 17.32 2.4 8.55 2.4C6.41 2.4 2.11 3.65 2.11 8.65C2.11 13.64 2.11 41.48 2.11 54.77C2.11 57.65 4.59 56.69 8.55 54.77L22.44 48.52C22.44 48.52 23.61 48.04 24.92 48.04C26.24 48.04 27.4 48.52 27.4 48.52L41.29 54.77C45.26 56.69 47.74 57.65 47.74 54.77C47.74 41.48 47.74 13.64 47.74 8.65C47.74 6.57 46.45 2.4 41.29 2.4Z" stroke="#2EA5FF" stroke-opacity="1.000000" stroke-width="5.000000"/>
</svg>
