<svg width="46.000000" height="53.000000" viewBox="0 0 46 53" fill="none" xmlns="http://www.w3.org/2000/svg" xmlns:xlink="http://www.w3.org/1999/xlink">
	<desc>
			Created with Pixso.
	</desc>
	<defs/>
	<path id="trash" d="M11.43 52.54L32.8 52.54C36.38 52.54 38.69 50.38 38.87 46.79L40.43 13.3L42.99 13.3C44.18 13.3 45.08 12.37 45.08 11.21C45.08 10.04 44.15 9.16 42.99 9.16L32.66 9.16L32.66 5.67C32.66 2.09 30.38 0 26.5 0L17.66 0C13.78 0 11.5 2.09 11.5 5.67L11.5 9.16L1.21 9.16C0.05 9.16 -0.88 10.07 -0.88 11.21C-0.88 12.39 0.05 13.3 1.21 13.3L3.77 13.3L5.33 46.79C5.52 50.4 7.8 52.54 11.43 52.54ZM15.85 5.88C15.85 4.69 16.68 3.93 17.96 3.93L26.2 3.93C27.48 3.93 28.31 4.69 28.31 5.88L28.31 9.16L15.85 9.16L15.85 5.88ZM11.89 48.38C10.61 48.38 9.68 47.42 9.61 46.05L8.05 13.3L36.08 13.3L34.57 46.05C34.52 47.45 33.62 48.38 32.29 48.38L11.89 48.38ZM15.24 44.63C16.24 44.63 16.87 44 16.85 43.07L16.15 18.74C16.12 17.81 15.47 17.21 14.52 17.21C13.54 17.21 12.91 17.84 12.94 18.77L13.64 43.1C13.66 44.03 14.31 44.63 15.24 44.63ZM22.1 44.63C23.08 44.63 23.75 44.03 23.75 43.1L23.75 18.77C23.75 17.84 23.08 17.21 22.1 17.21C21.12 17.21 20.47 17.84 20.47 18.77L20.47 43.1C20.47 44.03 21.12 44.63 22.1 44.63ZM28.96 44.66C29.89 44.66 30.55 44.03 30.57 43.1L31.27 18.77C31.29 17.84 30.66 17.23 29.69 17.23C28.73 17.23 28.08 17.84 28.06 18.77L27.36 43.1C27.34 44 27.96 44.66 28.96 44.66Z" fill="#F83D3D" fill-opacity="1.000000" fill-rule="nonzero"/>
</svg>
