<svg width="56.000000" height="56.000000" viewBox="0 0 56 56" fill="none" xmlns="http://www.w3.org/2000/svg" xmlns:xlink="http://www.w3.org/1999/xlink">
	<desc>
			Created with Pixso.
	</desc>
	<defs/>
	<path id="arrow.up.circle.fill" d="M27.79 56C43.13 56 55.8 43.32 55.8 28C55.8 12.67 43.11 0 27.76 0C12.44 0 -0.2 12.67 -0.2 28C-0.2 43.32 12.47 56 27.79 56ZM27.79 42.24C26.33 42.24 25.24 41.21 25.24 39.75L25.24 26.59L25.51 20.79L23 23.93L19.88 27.21C19.45 27.67 18.83 27.94 18.15 27.94C16.8 27.94 15.8 26.97 15.8 25.64C15.8 24.96 16.01 24.42 16.47 23.93L25.78 14.51C26.41 13.83 27.03 13.54 27.79 13.54C28.6 13.54 29.22 13.86 29.84 14.51L39.1 23.93C39.59 24.42 39.8 24.96 39.8 25.64C39.8 26.97 38.8 27.94 37.45 27.94C36.77 27.94 36.15 27.7 35.72 27.21L32.63 23.96L30.09 20.76L30.36 26.59L30.36 39.75C30.36 41.21 29.28 42.24 27.79 42.24Z" fill="#2EA5FF" fill-opacity="1.000000" fill-rule="nonzero"/>
</svg>
