<svg width="65.000000" height="65.000000" viewBox="0 0 65 65" fill="none" xmlns="http://www.w3.org/2000/svg" xmlns:xlink="http://www.w3.org/1999/xlink">
	<desc>
			Created with Pixso.
	</desc>
	<defs/>
	<path id="Vector" d="M53.85 -0.28L10.14 -0.28C2.1 -0.28 -2.99 8.38 1.05 15.39L28.03 62.15C29.79 65.2 34.2 65.2 35.96 62.15L62.94 15.39C66.98 8.4 61.88 -0.28 53.85 -0.28L53.85 -0.28ZM28.01 48.12L22.13 36.76L7.96 11.4C7.02 9.78 8.18 7.7 10.13 7.7L28 7.7L28 48.13L28.01 48.12ZM56.02 11.4L41.85 36.76L35.98 48.12L35.98 7.7L53.84 7.7C55.8 7.7 56.95 9.78 56.02 11.4Z" fill="#FFFFFF" fill-opacity="1.000000" fill-rule="nonzero"/>
</svg>
